<svg width="18" height="18" viewBox="0 0 18 18" fill="none" xmlns="http://www.w3.org/2000/svg">
<path d="M15.4136 3.728H2.4712C2.18516 3.728 1.91083 3.83841 1.70856 4.03495C1.5063 4.23149 1.39267 4.49805 1.39267 4.776V13.16C1.39267 13.4379 1.5063 13.7045 1.70856 13.901C1.91083 14.0976 2.18516 14.208 2.4712 14.208H15.4136C15.6997 14.208 15.974 14.0976 16.1763 13.901C16.3785 13.7045 16.4921 13.4379 16.4921 13.16V4.776C16.4921 4.49805 16.3785 4.23149 16.1763 4.03495C15.974 3.83841 15.6997 3.728 15.4136 3.728ZM14.2272 4.776L8.94241 8.32872L3.65759 4.776H14.2272ZM2.4712 13.16V5.25284L8.63503 9.39768C8.7253 9.45853 8.83254 9.49114 8.94241 9.49114C9.05227 9.49114 9.15952 9.45853 9.24979 9.39768L15.4136 5.25284V13.16H2.4712Z" fill="black"/>
</svg>
