<svg width="18" height="18" viewBox="0 0 18 18" fill="none" xmlns="http://www.w3.org/2000/svg">
<g clip-path="url(#clip0)">
<path fill-rule="evenodd" clip-rule="evenodd" d="M9.02094 0.512001C4.25382 0.512001 0.39267 4.26384 0.39267 8.896C0.39267 12.6059 2.86251 15.7394 6.29225 16.8503C6.72366 16.9237 6.88544 16.6722 6.88544 16.4521C6.88544 16.253 6.87466 15.5927 6.87466 14.8906C4.70681 15.2783 4.14597 14.377 3.9734 13.9054C3.87633 13.6644 3.45571 12.9203 3.089 12.7212C2.78702 12.564 2.3556 12.1762 3.07822 12.1658C3.7577 12.1553 4.24304 12.7736 4.40482 13.0251C5.18136 14.2932 6.42167 13.9369 6.9178 13.7168C6.9933 13.1718 7.21979 12.805 7.46785 12.5954C5.54806 12.3858 3.54199 11.6627 3.54199 8.45584C3.54199 7.54408 3.87633 6.78952 4.42639 6.20264C4.3401 5.99304 4.03811 5.13368 4.51267 3.98088C4.51267 3.98088 5.23529 3.7608 6.88544 4.84024C7.57571 4.6516 8.30911 4.55728 9.04251 4.55728C9.77592 4.55728 10.5093 4.6516 11.1996 4.84024C12.8497 3.75032 13.5724 3.98088 13.5724 3.98088C14.0469 5.13368 13.7449 5.99304 13.6586 6.20264C14.2087 6.78952 14.543 7.5336 14.543 8.45584C14.543 11.6732 12.5262 12.3858 10.6064 12.5954C10.9192 12.8574 11.1888 13.3605 11.1888 14.1465C11.1888 15.2678 11.178 16.1691 11.178 16.4521C11.178 16.6722 11.3398 16.9342 11.7712 16.8503C13.484 16.2884 14.9724 15.2187 16.0269 13.7918C17.0813 12.3649 17.6487 10.6526 17.6492 8.896C17.6492 4.26384 13.7881 0.512001 9.02094 0.512001Z" fill="black"/>
</g>
<defs>
<clipPath id="clip0">
<rect width="17.2565" height="16.768" fill="white" transform="translate(0.39267 0.512001)"/>
</clipPath>
</defs>
</svg>
