<svg width="353" height="302" viewBox="0 0 353 302" fill="none" xmlns="http://www.w3.org/2000/svg">
<path d="M8.00003 118C-2.99999 151 0.284816 182.643 3.00003 195C5.71524 207.357 13.0001 238 21 247C29 256 39 265 56 256C56 256 90 217 127 208C164 199 194 203 195 222C196 241 183 240 173 261C163 282 187 308 249 300C311 292 337 222 337 222C354.052 172.544 358.635 141.125 341 89C322.947 52.3377 312 35 269 16C226 -3 171 -3.43815 135 7.1501C99 17.7383 78.0001 26 54 49C30 72 19.0001 84.9999 8.00003 118Z" fill="white"/>
</svg>
