<svg width="18" height="18" viewBox="0 0 18 18" fill="none" xmlns="http://www.w3.org/2000/svg">
<path d="M14.3351 15.8667C14.9297 15.8667 15.4136 15.3965 15.4136 14.8187V12.3733C15.4136 11.7955 14.9297 11.3253 14.3351 11.3253C13.4938 11.3253 12.6669 11.1968 11.876 10.9432C11.687 10.8852 11.4852 10.8781 11.2924 10.9228C11.0995 10.9674 10.9228 11.0621 10.7809 11.1968L9.74556 12.2029C7.95599 11.2588 6.48625 9.83119 5.51411 8.09261L6.54087 7.08862C6.83711 6.82173 6.94353 6.41581 6.81698 6.02525C6.5565 5.25553 6.42445 4.45027 6.42583 3.64C6.42583 3.06221 5.94193 2.592 5.3473 2.592H2.83072C2.23608 2.592 1.75218 3.06221 1.75218 3.64C1.75218 10.3821 7.39651 15.8667 14.3351 15.8667ZM2.83072 3.29067H5.3473C5.44264 3.29067 5.53409 3.32747 5.60151 3.39299C5.66893 3.4585 5.70681 3.54735 5.70681 3.64C5.70681 4.5322 5.85061 5.40833 6.13319 6.23904C6.15395 6.29932 6.15638 6.36415 6.14018 6.42573C6.12398 6.48732 6.08985 6.54307 6.04187 6.58628L4.63546 7.95986C5.8125 10.2152 7.5511 11.9045 9.88289 13.058L11.2843 11.6956C11.3321 11.6497 11.3919 11.6172 11.4572 11.6017C11.5226 11.5862 11.591 11.5882 11.6553 11.6076C12.5152 11.8843 13.4169 12.024 14.3351 12.024C14.5328 12.024 14.6946 12.1812 14.6946 12.3733V14.8187C14.6946 15.0108 14.5328 15.168 14.3351 15.168C7.79341 15.168 2.4712 9.99647 2.4712 3.64C2.4712 3.54735 2.50908 3.4585 2.5765 3.39299C2.64392 3.32747 2.73537 3.29067 2.83072 3.29067Z" fill="black"/>
</svg>
